<?xml version="1.0"?>
<svg xmlns="http://www.w3.org/2000/svg" xmlns:xlink="http://www.w3.org/1999/xlink" version="1.1" viewBox="0 0 192 192" width="32px" height="32px"><g fill="none" fill-rule="nonzero" stroke="none" stroke-width="1" stroke-linecap="butt" stroke-linejoin="miter" stroke-miterlimit="10" stroke-dasharray="" stroke-dashoffset="0" font-family="none" font-weight="none" font-size="none" text-anchor="none" style="mix-blend-mode: normal"><path d="M0,192v-192h192v192z" fill="#ffffff"/><g fill="#000000"><g id="surface1"><path d="M96,24c-23.13281,0 -42,18.86719 -42,42c0,14.36719 7.3125,27.11719 18.375,34.6875c-21.46875,9.14063 -36.375,30.46875 -36.375,55.3125h12c0,-26.78906 21.21094,-48 48,-48c26.78906,0 48,21.21094 48,48h12c0,-24.84375 -14.90625,-46.17187 -36.375,-55.3125c11.0625,-7.57031 18.375,-20.32031 18.375,-34.6875c0,-23.13281 -18.86719,-42 -42,-42zM96,36c16.64063,0 30,13.35938 30,30c0,16.64063 -13.35937,30 -30,30c-16.64062,0 -30,-13.35937 -30,-30c0,-16.64062 13.35938,-30 30,-30z"/></g></g></g></svg>
